<svg width="1190" height="314" viewBox="0 0 1190 314" fill="none" xmlns="http://www.w3.org/2000/svg">
<path d="M5 5V309" stroke="white" stroke-opacity="0.5"/>
<path d="M50 5V309" stroke="white" stroke-opacity="0.5"/>
<path d="M96 5V309" stroke="white" stroke-opacity="0.5"/>
<path d="M141 5V309" stroke="white" stroke-opacity="0.5"/>
<path d="M187 5V309" stroke="white" stroke-opacity="0.5"/>
<path d="M232 5V309" stroke="white" stroke-opacity="0.5"/>
<path d="M277 5V309" stroke="white" stroke-opacity="0.5"/>
<path d="M323 5V309" stroke="white" stroke-opacity="0.5"/>
<path d="M368 5V309" stroke="white" stroke-opacity="0.5"/>
<path d="M413 5V309" stroke="white" stroke-opacity="0.5"/>
<path d="M459 5V309" stroke="white" stroke-opacity="0.5"/>
<path d="M504 5V309" stroke="white" stroke-opacity="0.5"/>
<path d="M550 5V309" stroke="white" stroke-opacity="0.5"/>
<path d="M595 5V309" stroke="white" stroke-opacity="0.5"/>
<path d="M640 5V309" stroke="white" stroke-opacity="0.5"/>
<path d="M686 5V309" stroke="white" stroke-opacity="0.5"/>
<path d="M731 5V309" stroke="white" stroke-opacity="0.5"/>
<path d="M777 5V309" stroke="white" stroke-opacity="0.5"/>
<path d="M822 5V309" stroke="white" stroke-opacity="0.5"/>
<path d="M867 5V309" stroke="white" stroke-opacity="0.5"/>
<path d="M913 5V309" stroke="white" stroke-opacity="0.5"/>
<path d="M958 5V309" stroke="white" stroke-opacity="0.5"/>
<path d="M1003 5V309" stroke="white" stroke-opacity="0.5"/>
<path d="M1049 5V309" stroke="white" stroke-opacity="0.5"/>
<path d="M1094 5V309" stroke="white" stroke-opacity="0.5"/>
<path d="M1140 5V309" stroke="white" stroke-opacity="0.5"/>
<path d="M1185 5V309" stroke="white" stroke-opacity="0.5"/>
<path d="M5 308.535H1185" stroke="white" stroke-opacity="0.5"/>
<path d="M5 265.173H1185" stroke="white" stroke-opacity="0.5"/>
<path d="M5 221.811H1185" stroke="white" stroke-opacity="0.5"/>
<path d="M5 178.449H1185" stroke="white" stroke-opacity="0.5"/>
<path d="M5 135.087H1185" stroke="white" stroke-opacity="0.5"/>
<path d="M5 91.7244H1185" stroke="white" stroke-opacity="0.5"/>
<path d="M5 48.3622H1185" stroke="white" stroke-opacity="0.5"/>
<path d="M5 5H1185" stroke="white" stroke-opacity="0.5"/>
<g filter="url(#filter0_f_332_161)">
<path d="M5 5V309" stroke="white" stroke-opacity="0.5"/>
<path d="M50 5V309" stroke="white" stroke-opacity="0.5"/>
<path d="M96 5V309" stroke="white" stroke-opacity="0.5"/>
<path d="M141 5V309" stroke="white" stroke-opacity="0.5"/>
<path d="M187 5V309" stroke="white" stroke-opacity="0.5"/>
<path d="M232 5V309" stroke="white" stroke-opacity="0.5"/>
<path d="M277 5V309" stroke="white" stroke-opacity="0.5"/>
<path d="M323 5V309" stroke="white" stroke-opacity="0.5"/>
<path d="M368 5V309" stroke="white" stroke-opacity="0.5"/>
<path d="M413 5V309" stroke="white" stroke-opacity="0.5"/>
<path d="M459 5V309" stroke="white" stroke-opacity="0.5"/>
<path d="M504 5V309" stroke="white" stroke-opacity="0.5"/>
<path d="M550 5V309" stroke="white" stroke-opacity="0.5"/>
<path d="M595 5V309" stroke="white" stroke-opacity="0.5"/>
<path d="M640 5V309" stroke="white" stroke-opacity="0.5"/>
<path d="M686 5V309" stroke="white" stroke-opacity="0.5"/>
<path d="M731 5V309" stroke="white" stroke-opacity="0.5"/>
<path d="M777 5V309" stroke="white" stroke-opacity="0.5"/>
<path d="M822 5V309" stroke="white" stroke-opacity="0.5"/>
<path d="M867 5V309" stroke="white" stroke-opacity="0.5"/>
<path d="M913 5V309" stroke="white" stroke-opacity="0.5"/>
<path d="M958 5V309" stroke="white" stroke-opacity="0.5"/>
<path d="M1003 5V309" stroke="white" stroke-opacity="0.5"/>
<path d="M1049 5V309" stroke="white" stroke-opacity="0.5"/>
<path d="M1094 5V309" stroke="white" stroke-opacity="0.5"/>
<path d="M1140 5V309" stroke="white" stroke-opacity="0.5"/>
<path d="M1185 5V309" stroke="white" stroke-opacity="0.5"/>
<path d="M5 308.535H1185" stroke="white" stroke-opacity="0.5"/>
<path d="M5 265.173H1185" stroke="white" stroke-opacity="0.5"/>
<path d="M5 221.811H1185" stroke="white" stroke-opacity="0.5"/>
<path d="M5 178.449H1185" stroke="white" stroke-opacity="0.5"/>
<path d="M5 135.087H1185" stroke="white" stroke-opacity="0.5"/>
<path d="M5 91.7244H1185" stroke="white" stroke-opacity="0.5"/>
<path d="M5 48.3622H1185" stroke="white" stroke-opacity="0.5"/>
<path d="M5 5H1185" stroke="white" stroke-opacity="0.5"/>
</g>
<defs>
<filter id="filter0_f_332_161" x="0.5" y="0.5" width="1189" height="312.535" filterUnits="userSpaceOnUse" color-interpolation-filters="sRGB">
<feFlood flood-opacity="0" result="BackgroundImageFix"/>
<feBlend mode="normal" in="SourceGraphic" in2="BackgroundImageFix" result="shape"/>
<feGaussianBlur stdDeviation="2" result="effect1_foregroundBlur_332_161"/>
</filter>
</defs>
</svg>
